HIERARCHY
ROOT Hips
{
 OFFSET 0.000000 0.000000 0.000000
 CHANNELS 6 Xposition Yposition Zposition Yrotation Xrotation Zrotation
 JOINT Chest
 {
  OFFSET 0.000000 9.585900 0.002600
  CHANNELS 3 Yrotation Xrotation Zrotation
  JOINT Chest2
  {
   OFFSET 0.000000 9.601200 -0.005300
   CHANNELS 3 Yrotation Xrotation Zrotation
   JOINT Chest3
   {
    OFFSET 0.000000 9.561800 0.000000
    CHANNELS 3 Yrotation Xrotation Zrotation
    JOINT Chest4
    {
     OFFSET 0.000000 9.552100 0.000000
     CHANNELS 3 Yrotation Xrotation Zrotation
     JOINT Neck
     {
      OFFSET 0.000000 14.453000 0.000000
      CHANNELS 3 Yrotation Xrotation Zrotation
      JOINT Head
      {
       OFFSET 0.000000 8.936500 -0.011300
       CHANNELS 3 Yrotation Xrotation Zrotation
       End Site
       {
        OFFSET 0.000000 17.073600 -0.006000
       }
      }
     }
     JOINT RightCollar
     {
      OFFSET -2.921100 9.558500 0.000000
      CHANNELS 3 Yrotation Xrotation Zrotation
      JOINT RightShoulder
      {
       OFFSET -13.519700 0.000000 0.000000
       CHANNELS 3 Yrotation Xrotation Zrotation
       JOINT RightElbow
       {
        OFFSET 0.000000 -29.696600 0.000000
        CHANNELS 3 Yrotation Xrotation Zrotation
        JOINT RightWrist
        {
         OFFSET 0.000000 -24.004700 0.000000
         CHANNELS 3 Yrotation Xrotation Zrotation
         End Site
         {
          OFFSET 0.000000 -17.728500 0.000000
         }
        }
       }
      }
     }
     JOINT LeftCollar
     {
      OFFSET 2.921100 9.558500 0.000000
      CHANNELS 3 Yrotation Xrotation Zrotation
      JOINT LeftShoulder
      {
       OFFSET 13.519700 0.000000 0.000000
       CHANNELS 3 Yrotation Xrotation Zrotation
       JOINT LeftElbow
       {
        OFFSET 0.000000 -29.696600 0.000000
        CHANNELS 3 Yrotation Xrotation Zrotation
        JOINT LeftWrist
        {
         OFFSET 0.000000 -24.004700 0.000000
         CHANNELS 3 Yrotation Xrotation Zrotation
         End Site
         {
          OFFSET 0.000000 -17.728500 0.000000
         }
        }
       }
      }
     }
    }
   }
  }
 }
 JOINT RightHip
 {
  OFFSET -7.771700 -0.012900 -0.001300
  CHANNELS 3 Yrotation Xrotation Zrotation
  JOINT RightKnee
  {
   OFFSET 0.000000 -40.869800 0.001200
   CHANNELS 3 Yrotation Xrotation Zrotation
   JOINT RightAnkle
   {
    OFFSET 0.000000 -39.717900 0.002100
    CHANNELS 3 Yrotation Xrotation Zrotation
    JOINT RightToe
    {
     OFFSET 0.000000 -4.965400 11.033500
     CHANNELS 3 Yrotation Xrotation Zrotation
     End Site
     {
      OFFSET 0.000000 -1.423100 5.872300
     }
    }
   }
  }
 }
 JOINT LeftHip
 {
  OFFSET 7.771700 -0.012900 -0.001300
  CHANNELS 3 Yrotation Xrotation Zrotation
  JOINT LeftKnee
  {
   OFFSET 0.000000 -40.869800 0.001200
   CHANNELS 3 Yrotation Xrotation Zrotation
   JOINT LeftAnkle
   {
    OFFSET 0.000000 -39.717900 0.002100
    CHANNELS 3 Yrotation Xrotation Zrotation
    JOINT LeftToe
    {
     OFFSET 0.000000 -4.965400 11.033500
     CHANNELS 3 Yrotation Xrotation Zrotation
     End Site
     {
      OFFSET 0.000000 -1.423100 5.872300
     }
    }
   }
  }
 }
}
MOTION
Frames: 16
Frame Time: 0.008333
-86.820295 50.510476 -9.747726 164.631552 -6.805193 -0.085660 3.122104 6.084550 0.921240 0.120262 0.242101 0.002457 0.212340 0.427311 0.001681 2.860583 5.742824 0.190281 2.654187 18.488798 0.213883 4.791521 -1.420388 -0.475652 1.675760 5.528486 0.128662 -21.637207 -14.220153 -5.833989 -76.668849 -59.758058 91.936136 -9.120136 -5.349049 -20.150752 -0.568229 0.793181 1.992163 28.158213 -4.096214 2.785044 62.670190 -54.538275 -89.548752 6.018010 3.157526 3.212980 -2.286085 -73.634837 -2.010579 -175.237995 84.235172 -175.170878 -8.789528 -16.037240 1.702429 -0.027654 0.138704 -0.014571 -12.706351 -77.226981 27.429389 119.555979 79.386654 116.676883 -16.258888 -22.472912 0.681948 -0.255996 -1.269560 -0.128910
-86.821049 50.508073 -9.748672 164.634956 -6.802780 -0.084906 3.121539 6.087210 0.912475 0.119764 0.242191 0.002039 0.210701 0.426065 0.004013 2.854675 5.745203 0.186624 2.659579 18.485974 0.213022 4.797648 -1.417512 -0.475150 1.672566 5.521010 0.119797 -21.622860 -14.231239 -5.839439 -76.649501 -59.747791 91.913382 -9.124069 -5.350119 -20.148074 -0.560736 0.790994 2.003092 28.169283 -4.096990 2.803880 62.693794 -54.574469 -89.567768 6.014332 3.166445 3.222324 -2.266940 -73.636757 -2.034547 -175.288281 84.234636 -175.215967 -8.792559 -16.036308 1.706310 -0.027277 0.136907 -0.017305 -12.735783 -77.225204 27.455346 119.512118 79.377218 116.623728 -16.267008 -22.451261 0.687484 -0.254362 -1.286301 -0.130286
-86.822211 50.505622 -9.748903 164.644784 -6.794826 -0.083426 3.111412 6.084897 0.903982 0.119570 0.242349 0.001956 0.210345 0.426264 0.003804 2.851222 5.746140 0.185625 2.656343 18.489229 0.205292 4.804636 -1.418363 -0.482395 1.678898 5.516480 0.114794 -21.624180 -14.238557 -5.837070 -76.639084 -59.754373 91.901693 -9.106286 -5.340706 -20.129266 -0.557684 0.792774 2.011871 28.185279 -4.099251 2.818985 62.705943 -54.572873 -89.592192 6.013918 3.169753 3.225273 -2.252289 -73.644294 -2.061996 -175.350027 84.234688 -175.271788 -8.795011 -16.037368 1.706810 -0.023065 0.136652 -0.018074 -12.751694 -77.233409 27.462790 119.451576 79.369402 116.559286 -16.282124 -22.416937 0.691662 -0.255954 -1.306225 -0.129678
-86.823902 50.503248 -9.749016 164.659811 -6.784799 -0.079435 3.095427 6.080124 0.893332 0.119433 0.242458 0.001937 0.209058 0.427827 0.002609 2.852221 5.741968 0.188746 2.655316 18.490498 0.202974 4.805517 -1.416735 -0.486543 1.682400 5.515329 0.105755 -21.628249 -14.238873 -5.828951 -76.646127 -59.777828 91.914922 -9.123725 -5.334360 -20.133105 -0.570042 0.795332 2.021258 28.206810 -4.096858 2.820234 62.712062 -54.599320 -89.591547 6.007896 3.178692 3.223968 -2.241167 -73.654014 -2.095098 -175.357077 84.233013 -175.271599 -8.793331 -16.038588 1.704144 -0.021829 0.136355 -0.017268 -12.755041 -77.243505 27.450384 119.366060 79.357878 116.471075 -16.295076 -22.379622 0.691141 -0.262196 -1.321875 -0.127775
-86.823567 50.501087 -9.749714 164.662328 -6.781069 -0.084594 3.093043 6.077834 0.896548 0.116646 0.246060 -0.001757 0.208959 0.428094 0.002472 2.849100 5.744801 0.185162 2.657721 18.490013 0.202493 4.809462 -1.420081 -0.486852 1.691764 5.507590 0.101748 -21.631597 -14.242709 -5.834734 -76.645715 -59.770281 91.923004 -9.124106 -5.333094 -20.137791 -0.569169 0.788786 2.036501 28.218960 -4.090205 2.823658 62.676581 -54.606294 -89.567977 6.007999 3.172017 3.210570 -2.250673 -73.656083 -2.087990 -175.333059 84.233774 -175.242832 -8.791416 -16.037981 1.703805 -0.023839 0.135186 -0.017674 -12.770987 -77.248883 27.468902 119.333710 79.354543 116.439793 -16.297129 -22.344098 0.683200 -0.253562 -1.334253 -0.118145
-86.822350 50.499058 -9.749981 164.662609 -6.776095 -0.095346 3.089922 6.077570 0.902696 0.117582 0.246469 -0.004947 0.209910 0.426940 0.003354 2.845696 5.749580 0.185574 2.654574 18.493503 0.194086 4.818758 -1.429116 -0.484111 1.698135 5.500141 0.094916 -21.623445 -14.248172 -5.849177 -76.654163 -59.750774 91.926471 -9.114796 -5.331365 -20.137043 -0.567138 0.783027 2.047605 28.227298 -4.081765 2.840215 62.683093 -54.585341 -89.587815 6.012169 3.175952 3.192237 -2.264397 -73.657447 -2.071133 -175.328505 84.236470 -175.230054 -8.791530 -16.036588 1.704084 -0.020594 0.136741 -0.016002 -12.805932 -77.255478 27.507369 119.304328 79.347295 116.412739 -16.283088 -22.311591 0.669925 -0.264732 -1.346798 -0.110199
-86.821685 50.496923 -9.748379 164.677665 -6.759416 -0.108008 3.073305 6.063729 0.905959 0.121019 0.247642 -0.005341 0.208847 0.424541 0.006729 2.841506 5.759501 0.173322 2.662857 18.486839 0.201666 4.822159 -1.430605 -0.484823 1.703119 5.488977 0.104150 -21.622218 -14.248398 -5.846919 -76.660108 -59.754183 91.936483 -9.104405 -5.334375 -20.126233 -0.563170 0.772988 2.064943 28.232432 -4.075076 2.862376 62.656167 -54.549572 -89.583129 6.013797 3.159058 3.177457 -2.305454 -73.671600 -2.040593 -175.320230 84.238755 -175.220327 -8.784322 -16.031662 1.707232 -0.025864 0.133663 -0.017574 -12.818503 -77.279092 27.514969 119.228057 79.335614 116.347060 -16.294518 -22.284343 0.667399 -0.276414 -1.358966 -0.105658
-86.820720 50.495198 -9.749267 164.679166 -6.757902 -0.117660 3.076377 6.071603 0.902102 0.119372 0.243065 0.001638 0.207844 0.421620 0.009787 2.843087 5.765320 0.169012 2.663541 18.481422 0.205716 4.823847 -1.428746 -0.489548 1.697604 5.481839 0.106689 -21.615266 -14.248436 -5.855841 -76.670192 -59.756301 91.963363 -9.110968 -5.335790 -20.126189 -0.569599 0.775885 2.079651 28.243478 -4.069265 2.874079 62.641717 -54.519286 -89.591498 6.036056 3.169057 3.148851 -2.333106 -73.669456 -2.010023 -175.239504 84.239887 -175.140286 -8.772917 -16.031641 1.708021 -0.024809 0.134334 -0.016203 -12.851035 -77.280321 27.546727 119.222764 79.328599 116.339792 -16.268585 -22.275024 0.660023 -0.220884 -1.344064 -0.096914
-86.825572 50.493624 -9.752581 164.678234 -6.761598 -0.090867 3.074879 6.082606 0.869210 0.119555 0.243395 0.001541 0.210177 0.420897 0.009524 2.842391 5.764177 0.171403 2.663526 18.480354 0.206050 4.823980 -1.430070 -0.490272 1.699614 5.478518 0.098186 -21.614171 -14.245160 -5.856132 -76.686328 -59.757424 91.990781 -9.106897 -5.343548 -20.123239 -0.575397 0.787608 2.095940 28.250018 -4.067600 2.877979 62.648328 -54.496964 -89.609197 6.037639 3.169094 3.141248 -2.240701 -73.670115 -2.107220 -175.305472 84.234399 -175.213376 -8.771447 -16.033383 1.714437 -0.026828 0.134584 -0.016329 -12.671953 -77.287496 27.374113 119.235022 79.336027 116.372255 -16.342579 -22.264191 0.664004 -0.152602 -1.334827 -0.079956
-86.827161 50.491886 -9.753154 164.671104 -6.755103 -0.088075 3.079837 6.082539 0.860451 0.119767 0.243696 0.001441 0.210772 0.428545 0.002862 2.846622 5.754426 0.179177 2.660895 18.493823 0.193307 4.825972 -1.447631 -0.479838 1.705097 5.473465 0.081290 -21.619875 -14.242248 -5.846143 -76.690846 -59.763209 92.004798 -9.104250 -5.347471 -20.124302 -0.576710 0.788181 2.104664 28.254017 -4.058543 2.894181 62.669035 -54.480392 -89.640868 6.037998 3.168795 3.139413 -2.232491 -73.677090 -2.111572 -175.370353 84.235826 -175.278296 -8.773227 -16.030311 1.713088 -0.021757 0.133677 -0.016268 -12.627695 -77.294857 27.342610 119.248402 79.342826 116.397014 -16.378556 -22.280112 0.671213 -0.240702 -1.303849 -0.094047
-86.827200 50.490270 -9.754649 164.664895 -6.757103 -0.094727 3.083647 6.088982 0.863096 0.119890 0.243917 0.001378 0.210986 0.429054 0.002817 2.848149 5.768493 0.171046 2.663021 18.483290 0.197717 4.822011 -1.441991 -0.488215 1.708788 5.452737 0.089676 -21.615117 -14.246627 -5.859451 -76.699202 -59.767632 92.025530 -9.087778 -5.354143 -20.117969 -0.574910 0.770476 2.118420 28.261102 -4.048596 2.909245 62.660330 -54.478486 -89.653832 6.042548 3.175418 3.132115 -2.259674 -73.672907 -2.081838 -175.420920 84.238184 -175.327038 -8.771556 -16.030457 1.709475 -0.024663 0.135529 -0.015775 -12.641978 -77.293367 27.365960 119.292003 79.345024 116.446384 -16.382630 -22.297091 0.672235 -0.243563 -1.279595 -0.102025
-86.824119 50.488837 -9.757349 164.646276 -6.771930 -0.117936 3.103452 6.104029 0.887796 0.119922 0.244001 0.001364 0.212615 0.434195 -0.001750 2.852295 5.771351 0.169519 2.660543 18.481610 0.197162 4.819494 -1.446507 -0.486907 1.708385 5.440751 0.083955 -21.608912 -14.244445 -5.871729 -76.720305 -59.762209 92.047641 -9.084457 -5.352986 -20.123135 -0.573295 0.766191 2.130942 28.257889 -4.046151 2.916115 62.649279 -54.508711 -89.651232 6.015295 3.188071 3.133100 -2.332487 -73.652302 -1.988741 -175.448084 84.243314 -175.350926 -8.769917 -16.029703 1.704671 -0.026245 0.134828 -0.016031 -12.714152 -77.275253 27.455908 119.426151 79.353946 116.574454 -16.295993 -22.335261 0.677450 -0.277899 -1.256950 -0.119532
-86.822332 50.486943 -9.756902 164.646585 -6.767364 -0.142663 3.105747 6.104173 0.906275 0.120275 0.244337 0.001324 0.216398 0.435672 -0.002780 2.857583 5.774741 0.166964 2.656197 18.475379 0.201031 4.817331 -1.451545 -0.482762 1.715270 5.430680 0.060851 -21.621808 -14.237820 -5.856177 -76.727512 -59.762995 92.059684 -9.093571 -5.355875 -20.134067 -0.582757 0.766200 2.152892 28.269934 -4.044059 2.919849 62.664412 -54.527580 -89.674555 6.002318 3.197609 3.127839 -2.426499 -73.651586 -1.893533 -175.516408 84.249106 -175.417150 -8.771482 -16.028845 1.700028 -0.024407 0.135366 -0.015483 -12.836282 -77.274600 27.575805 119.476105 79.357310 116.617151 -16.235261 -22.369731 0.677748 -0.293191 -1.229294 -0.129757
-86.824907 50.484970 -9.757457 164.653848 -6.762643 -0.142896 3.106124 6.108247 0.897583 0.117181 0.241093 0.004300 0.214471 0.432926 0.000320 2.860089 5.780295 0.162029 2.654570 18.468302 0.206808 4.809671 -1.448218 -0.487152 1.717687 5.422319 0.053513 -21.618314 -14.234435 -5.860420 -76.751770 -59.765707 92.081893 -9.088908 -5.350720 -20.124840 -0.589557 0.763692 2.164810 28.274310 -4.045660 2.923037 62.677433 -54.563363 -89.681902 5.998369 3.205125 3.120220 -2.442572 -73.656083 -1.890594 -175.532019 84.248718 -175.430669 -8.776982 -16.030763 1.695331 -0.017786 0.137109 -0.012661 -12.899501 -77.276119 27.627864 119.510294 79.356083 116.639761 -16.239914 -22.382132 0.685220 -0.251854 -1.242826 -0.123815
-86.829281 50.483085 -9.759480 164.656835 -6.764494 -0.130857 3.103029 6.111938 0.884324 0.120648 0.245000 0.001147 0.212243 0.430645 0.002335 2.860215 5.785409 0.156463 2.654514 18.468617 0.206785 4.804335 -1.450106 -0.487974 1.722380 5.414943 0.045999 -21.602909 -14.236112 -5.889169 -76.785118 -59.747059 92.106594 -9.067225 -5.347286 -20.106542 -0.594649 0.761426 2.175493 28.276331 -4.046907 2.922933 62.686630 -54.577665 -89.687260 5.967858 3.207422 3.118987 -2.410880 -73.656516 -1.932758 -175.551440 84.245739 -175.451064 -8.781555 -16.033482 1.694445 -0.020395 0.139128 -0.010633 -12.871881 -77.273658 27.596696 119.551094 79.364381 116.674291 -16.271645 -22.392787 0.698264 -0.250257 -1.241827 -0.124247
-86.832913 50.481263 -9.761658 164.656326 -6.769178 -0.122841 3.104969 6.118460 0.872998 0.120644 0.245313 0.000887 0.216446 0.435567 0.000070 2.857384 5.784571 0.157351 2.652989 18.476844 0.198698 4.799335 -1.452482 -0.484594 1.722688 5.409236 0.043410 -21.592442 -14.239273 -5.901623 -76.791036 -59.746517 92.114660 -9.067908 -5.349132 -20.110500 -0.599211 0.757896 2.181841 28.274641 -4.046443 2.921783 62.696516 -54.595250 -89.689758 5.938674 3.209455 3.120990 -2.384793 -73.653143 -1.965906 -175.528807 84.242876 -175.427699 -8.773870 -16.036152 1.690225 -0.026192 0.140226 -0.007988 -12.851108 -77.268586 27.573494 119.598817 79.369560 116.710950 -16.269544 -22.397975 0.710072 -0.303132 -1.247432 -0.132862
